<svg width="40" height="40" viewBox="0 0 40 40" fill="none" xmlns="http://www.w3.org/2000/svg">
<path d="M18.3335 28.3333L21.6668 31.6666C21.9951 31.9949 22.3849 32.2554 22.8138 32.433C23.2428 32.6107 23.7025 32.7022 24.1668 32.7022C24.6311 32.7022 25.0909 32.6107 25.5198 32.433C25.9488 32.2554 26.3385 31.9949 26.6668 31.6666C26.9951 31.3383 27.2556 30.9486 27.4332 30.5196C27.6109 30.0907 27.7024 29.6309 27.7024 29.1666C27.7024 28.7023 27.6109 28.2426 27.4332 27.8136C27.2556 27.3847 26.9951 26.9949 26.6668 26.6666" stroke="#581C87" stroke-width="2" stroke-linecap="round" stroke-linejoin="round"/>
<path d="M23.3332 23.3333L27.4999 27.5C28.1629 28.163 29.0622 28.5355 29.9999 28.5355C30.9376 28.5355 31.8368 28.163 32.4999 27.5C33.1629 26.8369 33.5354 25.9377 33.5354 25C33.5354 24.0623 33.1629 23.163 32.4999 22.5L26.0332 16.0333C25.0957 15.097 23.8249 14.5711 22.4999 14.5711C21.1749 14.5711 19.9041 15.097 18.9666 16.0333L17.4999 17.5C16.8368 18.163 15.9376 18.5355 14.9999 18.5355C14.0622 18.5355 13.1629 18.163 12.4999 17.5C11.8368 16.8369 11.4644 15.9377 11.4644 15C11.4644 14.0623 11.8368 13.163 12.4999 12.5L17.1832 7.81665C18.7036 6.30023 20.6864 5.33424 22.8176 5.07161C24.9489 4.80897 27.1068 5.2647 28.9499 6.36665L29.7332 6.83332C30.4429 7.26163 31.2866 7.41018 32.0999 7.24998L34.9999 6.66665" stroke="#581C87" stroke-width="2" stroke-linecap="round" stroke-linejoin="round"/>
<path d="M35.0002 5L36.6668 23.3333H33.3335" stroke="#581C87" stroke-width="2" stroke-linecap="round" stroke-linejoin="round"/>
<path d="M5.00016 5L3.3335 23.3333L14.1668 34.1667C14.8299 34.8297 15.7291 35.2022 16.6668 35.2022C17.6045 35.2022 18.5038 34.8297 19.1668 34.1667C19.8299 33.5036 20.2024 32.6043 20.2024 31.6667C20.2024 30.729 19.8299 29.8297 19.1668 29.1667" stroke="#581C87" stroke-width="2" stroke-linecap="round" stroke-linejoin="round"/>
<path d="M5 6.66663H18.3333" stroke="#581C87" stroke-width="2" stroke-linecap="round" stroke-linejoin="round"/>
</svg>
