<svg width="40" height="40" viewBox="0 0 40 40" fill="none" xmlns="http://www.w3.org/2000/svg">
<path d="M20.0002 5C21.1113 9.44444 23.3335 13.0556 26.6668 15.8333C30.0002 18.6111 31.6668 21.6667 31.6668 25C31.6668 28.0942 30.4377 31.0617 28.2497 33.2496C26.0618 35.4375 23.0944 36.6667 20.0002 36.6667C16.906 36.6667 13.9385 35.4375 11.7506 33.2496C9.56266 31.0617 8.3335 28.0942 8.3335 25C8.3335 23.1969 8.91831 21.4425 10.0002 20C10.0002 21.1051 10.4391 22.1649 11.2206 22.9463C12.002 23.7277 13.0618 24.1667 14.1668 24.1667C15.2719 24.1667 16.3317 23.7277 17.1131 22.9463C17.8945 22.1649 18.3335 21.1051 18.3335 20C18.3335 16.6667 15.8335 15 15.8335 11.6667C15.8335 9.44444 17.2224 7.22222 20.0002 5Z" stroke="#581C87" stroke-width="2" stroke-linecap="round" stroke-linejoin="round"/>
</svg>
