<svg width="40" height="40" viewBox="0 0 40 40" fill="none" xmlns="http://www.w3.org/2000/svg">
<path d="M18.3614 4.69C18.4328 4.30768 18.6357 3.96236 18.9349 3.71387C19.2341 3.46537 19.6108 3.32935 19.9998 3.32935C20.3887 3.32935 20.7654 3.46537 21.0646 3.71387C21.3638 3.96236 21.5667 4.30768 21.6381 4.69L23.3898 13.9533C23.5142 14.6119 23.8342 15.2177 24.3081 15.6916C24.7821 16.1655 25.3878 16.4856 26.0464 16.61L35.3098 18.3617C35.6921 18.4331 36.0374 18.636 36.2859 18.9352C36.5344 19.2344 36.6704 19.6111 36.6704 20C36.6704 20.3889 36.5344 20.7656 36.2859 21.0648C36.0374 21.364 35.6921 21.5669 35.3098 21.6383L26.0464 23.39C25.3878 23.5144 24.7821 23.8345 24.3081 24.3084C23.8342 24.7823 23.5142 25.3881 23.3898 26.0467L21.6381 35.31C21.5667 35.6923 21.3638 36.0376 21.0646 36.2861C20.7654 36.5346 20.3887 36.6707 19.9998 36.6707C19.6108 36.6707 19.2341 36.5346 18.9349 36.2861C18.6357 36.0376 18.4328 35.6923 18.3614 35.31L16.6098 26.0467C16.4853 25.3881 16.1653 24.7823 15.6914 24.3084C15.2175 23.8345 14.6117 23.5144 13.9531 23.39L4.68976 21.6383C4.30743 21.5669 3.96212 21.364 3.71362 21.0648C3.46513 20.7656 3.3291 20.3889 3.3291 20C3.3291 19.6111 3.46513 19.2344 3.71362 18.9352C3.96212 18.636 4.30743 18.4331 4.68976 18.3617L13.9531 16.61C14.6117 16.4856 15.2175 16.1655 15.6914 15.6916C16.1653 15.2177 16.4853 14.6119 16.6098 13.9533L18.3614 4.69Z" stroke="#581C87" stroke-width="2" stroke-linecap="round" stroke-linejoin="round"/>
<path d="M33.3335 3.33337V10" stroke="#581C87" stroke-width="2" stroke-linecap="round" stroke-linejoin="round"/>
<path d="M36.6667 6.66663H30" stroke="#581C87" stroke-width="2" stroke-linecap="round" stroke-linejoin="round"/>
<path d="M6.66683 36.6667C8.50778 36.6667 10.0002 35.1743 10.0002 33.3333C10.0002 31.4924 8.50778 30 6.66683 30C4.82588 30 3.3335 31.4924 3.3335 33.3333C3.3335 35.1743 4.82588 36.6667 6.66683 36.6667Z" stroke="#581C87" stroke-width="2" stroke-linecap="round" stroke-linejoin="round"/>
</svg>
