<svg width="40" height="40" viewBox="0 0 40 40" fill="none" xmlns="http://www.w3.org/2000/svg">
<path d="M20.6817 21.695C21.4414 19.934 22.7853 18.4889 24.4866 17.6036C26.1879 16.7183 28.1425 16.4469 30.0206 16.8352C31.8988 17.2235 33.5855 18.2478 34.7963 19.7352C36.007 21.2226 36.6676 23.0821 36.6667 25C36.6667 31.4433 30 36.6666 21.6667 36.6666C14.8717 36.6666 8.07836 35.3 4.38169 32.5633C3.67169 32.0366 3.33002 31.1766 3.34836 30.2933C3.53002 21.205 4.37836 3.33331 16.6667 3.33331C17.9928 3.33331 19.2645 3.8601 20.2022 4.79778C21.1399 5.73546 21.6667 7.00723 21.6667 8.33331C21.6667 9.21737 21.3155 10.0652 20.6904 10.6903C20.0653 11.3155 19.2174 11.6666 18.3334 11.6666C16.4917 11.6666 15.6 10.9266 15 9.99998" stroke="#581C87" stroke-width="2" stroke-linecap="round" stroke-linejoin="round"/>
<path d="M24.9999 23.3334C23.994 22.5785 22.8304 22.0612 21.5961 21.82C20.3619 21.5788 19.0891 21.6202 17.8731 21.9408C16.6571 22.2615 15.5295 22.8532 14.5747 23.6717C13.6199 24.4901 12.8627 25.514 12.3599 26.6667" stroke="#581C87" stroke-width="2" stroke-linecap="round" stroke-linejoin="round"/>
<path d="M16.6068 11.375C13.3652 13.295 15.8335 21.6667 13.3335 25" stroke="#581C87" stroke-width="2" stroke-linecap="round" stroke-linejoin="round"/>
</svg>
